<svg width="801" height="531" viewBox="0 0 801 531" fill="none" xmlns="http://www.w3.org/2000/svg">
<path d="M742.588 237.975C724.317 158.617 755.661 55.5539 662.67 13.2762C569.884 -28.9084 462.871 50.1761 354.973 61.7477C237.413 74.3555 73.0127 7.2486 13.3456 82.9136C-47.5098 160.086 117.54 233.814 151.777 319.425C179.04 387.597 100.63 494.468 189.204 522.653C283.23 552.573 369.02 493.077 470.433 482.509C583.347 470.742 676.781 514.746 766.107 462.531C849.102 414.017 760.304 314.921 742.588 237.975Z" fill="url(#paint0_linear_1530_77)"/>
<path fill-rule="evenodd" clip-rule="evenodd" d="M313.714 455.515C311.82 454.346 309.783 452.678 308.363 450.339C304.892 444.651 303.643 442.523 300.264 443.088C296.886 443.653 299.962 452.165 301.119 454.951C301.172 455.082 301.25 455.226 301.356 455.384L290.654 455.634C287.814 455.699 285.527 457.722 285.382 460.258C285.303 461.769 285.869 462.885 286.881 463.7C285.842 464.265 285.133 465.25 285.067 466.406C285.054 466.642 285.041 466.813 285.041 466.892C284.922 468.705 285.816 470.019 287.354 470.925C285.803 471.766 284.896 472.987 285.014 474.708C285.172 477.257 287.486 479.254 290.326 479.319C295.795 479.425 306.93 479.425 313.7 479.411V455.515H313.714Z" fill="#D7DADD"/>
<path fill-rule="evenodd" clip-rule="evenodd" d="M315.555 454.069H327.939V480.764H315.555V454.069Z" fill="#D7DADD"/>
<defs>
<linearGradient id="paint0_linear_1530_77" x1="901.073" y1="23.8747" x2="302.436" y2="468.276" gradientUnits="userSpaceOnUse">
<stop stop-color="#F4F5F7" stop-opacity="0"/>
<stop offset="1" stop-color="#F4F5F7"/>
</linearGradient>
</defs>
</svg>
