<svg width="45" height="50" viewBox="0 0 45 50" fill="none" xmlns="http://www.w3.org/2000/svg">
<path d="M4.356 0.676994L42.981 22.977C44.538 23.876 44.538 26.124 42.981 27.023L4.356 49.323C2.799 50.222 0.851999 49.098 0.851999 47.3V2.7C0.851999 0.901995 2.798 -0.222006 4.356 0.676994Z" fill="white"/>
<path d="M42.981 22.977L4.356 0.677C4.123 0.543 3.882 0.466999 3.64 0.417999L40.981 21.977C42.538 22.876 42.538 25.124 40.981 26.023L2.356 48.323C2.007 48.524 1.64 48.611 1.278 48.624C1.934 49.562 3.239 49.967 4.356 49.323L42.981 27.023C44.538 26.124 44.538 23.876 42.981 22.977Z" fill="white"/>
<path d="M4.356 0.676994L42.981 22.977C44.538 23.876 44.538 26.124 42.981 27.023L4.356 49.323C2.799 50.222 0.851999 49.098 0.851999 47.3V2.7C0.851999 0.901995 2.798 -0.222006 4.356 0.676994Z" fill="white"/>
</svg>
