<svg width="176" height="478" viewBox="0 0 176 478" fill="none" xmlns="http://www.w3.org/2000/svg">
<g opacity="0.3">
<path d="M-197.695 477.999C-186.602 477.999 -175.51 473.886 -167.084 465.554L149.912 152.09C166.764 135.426 166.764 108.319 149.912 91.6547C141.699 83.5333 130.819 79.1035 119.3 79.1035C107.781 79.1035 96.9012 83.5333 88.6884 91.6547L-228.307 405.118C-236.52 413.239 -240.999 423.892 -240.999 435.388C-240.999 446.779 -236.52 457.538 -228.307 465.659C-219.774 473.886 -208.788 477.999 -197.695 477.999ZM119.3 81.213C130.286 81.213 140.632 85.4318 148.312 93.1313C164.311 108.952 164.311 134.793 148.312 150.614L-168.683 464.077C-184.683 479.898 -210.814 479.898 -226.813 464.077C-234.6 456.377 -238.866 446.147 -238.866 435.388C-238.866 424.525 -234.6 414.294 -226.813 406.7L90.2883 93.1313C97.9678 85.4318 108.314 81.213 119.3 81.213Z" fill="#00F0B5"/>
<path d="M-184.896 398.896C-173.804 398.896 -162.711 394.782 -154.285 386.45L162.71 72.9867C179.563 56.3221 179.563 29.2158 162.71 12.5512C154.497 4.42983 143.618 0 132.099 0C120.579 0 109.7 4.42983 101.487 12.5512L-215.508 326.014C-223.721 334.136 -228.2 344.789 -228.2 356.285C-228.2 367.676 -223.721 378.434 -215.508 386.556C-206.975 394.782 -195.989 398.896 -184.896 398.896ZM132.099 2.10944C143.085 2.10944 153.431 6.32833 161.11 14.0278C177.11 29.8486 177.11 55.6893 161.11 71.5101L-155.885 384.973C-171.884 400.794 -198.016 400.794 -214.015 384.973C-221.801 377.274 -226.067 367.043 -226.067 356.285C-226.067 345.421 -221.801 335.191 -214.015 327.597L103.087 14.0278C110.767 6.32833 121.113 2.10944 132.099 2.10944Z" fill="#00F0B5"/>
</g>
</svg>
