<svg width="187" height="469" viewBox="0 0 187 469" fill="none" xmlns="http://www.w3.org/2000/svg">
<g opacity="0.4">
<path d="M84.5033 337.457C58.8819 327.044 42.2158 314.101 34.3751 298.68C26.5466 283.282 27.4619 265.303 37.2502 244.675C56.9063 203.252 77.0864 167.042 97.7892 136.042C118.428 105.139 151.347 82.9264 196.608 69.4356C241.782 55.9704 287.083 64.5092 332.546 95.1248C355.281 110.434 371.547 127.379 381.382 145.949C391.213 164.513 394.631 184.728 391.627 206.611C385.594 250.564 379.135 288.189 372.25 319.489C365.391 350.673 347.25 377.625 317.78 400.345C303.082 411.676 287.42 417.437 270.784 417.656C254.141 417.875 236.482 412.548 217.799 401.632C180.295 379.72 135.862 358.329 84.5033 337.457Z" stroke="#00F0B5"/>
<path d="M112.875 317.917C92.0754 309.46 78.5614 298.96 72.2038 286.468C65.8586 274.001 66.5881 259.439 74.5212 242.716C90.4672 209.102 106.84 179.721 123.638 154.57C140.371 129.515 167.074 111.507 203.808 100.576C240.456 89.6708 277.216 96.6087 314.126 121.463C332.584 133.891 345.787 147.641 353.77 162.701C361.75 177.754 364.529 194.144 362.1 211.887C357.216 247.561 351.985 278.097 346.405 303.499C340.852 328.783 326.144 350.636 302.235 369.057C290.318 378.239 277.621 382.901 264.134 383.073C250.641 383.245 236.316 378.922 221.151 370.061C190.684 352.259 154.591 334.878 112.875 317.917Z" stroke="#00F0B5"/>
<path d="M130.323 305.946C112.496 298.698 100.927 289.704 95.4869 279.015C90.0594 268.351 90.679 255.89 97.4747 241.564C111.146 212.745 125.182 187.556 139.583 165.995C153.919 144.529 176.799 129.097 208.284 119.728C239.683 110.385 271.18 116.327 302.813 137.628C318.632 148.279 329.943 160.06 336.781 172.96C343.616 185.854 345.996 199.891 343.916 215.091C339.728 245.677 335.243 271.857 330.46 293.634C325.702 315.295 313.102 334.018 292.613 349.804C282.406 357.669 271.534 361.66 259.988 361.807C248.435 361.954 236.165 358.253 223.17 350.66C197.043 335.394 166.093 320.49 130.323 305.946Z" stroke="#00F0B5"/>
</g>
</svg>
